<?xml version="1.0" encoding="utf-8"?>
<!-- Generator: Adobe Illustrator 22.0.1, SVG Export Plug-In . SVG Version: 6.00 Build 0)  -->
<svg version="1.1" id="Layer_1" xmlns="http://www.w3.org/2000/svg" xmlns:xlink="http://www.w3.org/1999/xlink" x="0px" y="0px"
	 viewBox="0 0 653.3 354.5" style="enable-background:new 0 0 653.3 354.5;" xml:space="preserve">
<style type="text/css">
	.st0{fill:#FD5B00;}
	.st1{fill:#D3DDE1;}
	.st2{fill:url(#SVGID_1_);}
</style>
<title>Asset 5wave india</title>
<g id="Layer_2_1_">
	<g id="Layer_1-2">
		<path class="st0" d="M309.7,52.5c5,5,9.9,10.2,14.8,15.5s9.9,10.5,14.6,15.7s9.3,10.6,13.8,16.2c18.2,22.3,36.7,45,57.9,65.2
			c2.6,2.5,5.3,5,8.1,7.5s5.5,4.9,8.3,7.2c5.7,4.7,11.7,9,17.8,13.1c12.4,8,26.1,14.3,40.4,17.1c-6.6-2.9-12.9-6.3-19-10.2
			c-3-1.9-5.9-4-8.8-6s-5.6-4.3-8.3-6.7c-5.5-4.5-10.7-9.3-15.7-14.4c-2.5-2.5-5.1-5-7.5-7.6s-4.9-5.2-7.3-7.9
			c-19.1-21.3-36.8-43.8-55.2-66.2c-4.6-5.6-9.5-11.3-14.5-16.6S339.1,63.9,334,58.8s-10.4-10.2-15.9-15.1
			c-5.5-5-11.4-9.6-17.6-13.8C275.9,12.9,247.2,3,218.4,0c27.7,8.6,53.8,20.9,75.8,38.4C299.6,42.8,304.8,47.5,309.7,52.5z"/>
		<path class="st1" d="M213.4,17c8.6,3.1,16.9,7,24.8,11.6c3.8,2.2,7.5,4.7,11.1,7.4c1.7,1.3,3.6,2.8,5.4,4.3l5.4,4.5
			c7.2,6,14,12.1,20.5,18.6s12.7,13.3,18.8,20.4s12.1,14.3,18.1,21.7l18.1,22.2c12.2,14.8,24.7,29.6,38.4,43.6s28.4,27.3,44.8,38.6
			s34.8,20.2,54.4,24.4c4.9,1.1,9.8,1.7,14.7,2.3c4.9,0.6,9.8,0.8,14.7,0.8c9.7-0.1,19.4-1.4,28.8-3.7c-9.5,0.4-19,0-28.4-1.4
			c-4.6-0.7-9.2-1.6-13.7-2.8c-4.5-1.3-8.9-2.8-13.1-4.6c-17.1-7-32.4-17.4-46.4-29.3s-26.8-25.4-39.2-39.5s-24.2-28.8-36.3-43.6
			c-6-7.4-12.2-14.8-18.4-22.2s-12.7-14.7-19.4-21.8c-6.8-7.2-13.9-14.1-21.4-20.6c-7.5-6.5-15.4-12.5-23.7-18c-2-1.4-4.1-2.7-6.1-4
			l-6.3-4c-4.4-2.7-9-5-13.7-7.1c-9.2-4-18.8-7-28.7-8.9c-9.7-1.9-19.5-3-29.3-3.2c-9.7-0.3-19.5,0.5-29,2.5c9.5,0.6,19,1.9,28.3,4
			C195.6,11.1,204.6,13.7,213.4,17z"/>
		<linearGradient id="SVGID_1_" gradientUnits="userSpaceOnUse" x1="182.1038" y1="382.1981" x2="360.9201" y2="104.1486">
			<stop  offset="0.11" style="stop-color:#008BA3"/>
			<stop  offset="0.5415" style="stop-color:#13A4A2"/>
			<stop  offset="0.82" style="stop-color:#33CFA0"/>
		</linearGradient>
		<path class="st2" d="M647.5,195.3c-26.4,23.4-57.2,42.3-91.1,52.3c-36.4,10.7-76.4,10.6-111.5-3.6c-44.5-18-76.5-55.9-105.6-92.6
			c-16-20.2-31.4-41-48.1-61.1s-34.7-39.7-56.9-55.6c-40.1-28.5-92.5-33-136.8-11.6c-58,27.7-95.4,87.6-97.4,151.3
			c-1,28,4,56,14.7,81.9c5.5,13.2,12.6,25.6,21.2,36.9c35.4,46.8,96.5,67.5,153.7,59.7c14.2-2.1,28.2-5.9,41.5-11.2
			c13.4-5.1,26-12.3,37.9-20.3l8.7-6.3c2.9-2.2,5.5-4.6,8.3-6.9l4.1-3.5c1.3-1.2,2.6-2.5,3.9-3.8l7.6-7.6l-23.5-21.2
			c-3.6-3.2-9-3-12.3,0.5c-1,1-1.9,2.1-3,3.1l-3.2,2.9c-2.2,1.9-4.2,3.9-6.4,5.7l-6.8,5.3c-9.3,6.6-19.2,12.8-29.8,17.2
			c-10.5,4.7-21.6,8.1-32.9,10.1c-45.3,8-93.6-6.7-123.1-43.1c-7.3-9-13.5-19-18.3-29.6c-9.8-21.4-16-45.4-14.7-69.3
			c2-36.7,14.5-73,38.6-100.7c-21.4,26.8-32,62-34.2,96.8c-2.3,36.4,8.9,73.9,33.2,102c29.5,34.1,69.3,44.5,112.5,41.5l1.1-0.1
			c-41.8,2.4-88.4-26-111.4-60.1c-22.3-33-22.9-76-11.2-113.1c3-9.7,7-19.1,12-28c4.8-8.7,10.8-16.8,17.6-24
			c10.4-10.7,27.3-18.9,40.8-25.2c-34.3,16-58.4,49.2-64.4,85.2c3.5-14.8,11.4-30.4,21.5-41.3c11.8-12.8,25.8-23.4,41.4-31.2
			c32.9-16.5,74.2-19,107.4-2c0.6,0.3,1.1,0.7,1.7,1c10.2,8,20,16.7,29.1,26c14,14.3,26.6,29.8,39.5,45
			c42.4,50.1,90.7,106,158.5,118.9c40.9,7.8,83.1,0.4,119.6-19.1C608.2,232.2,649.5,193.6,647.5,195.3z"/>
	</g>
</g>
</svg>
