<svg xmlns="http://www.w3.org/2000/svg" xmlns:xlink="http://www.w3.org/1999/xlink" width="1850.969" height="614.901" viewBox="0 0 1850.969 614.901"><defs><style>.a{fill:none;}.b{clip-path:url(#a);}.c{opacity:0.5;}.d{fill:url(#b);}</style><clipPath id="a"><rect class="a" width="1850.969" height="614.901"/></clipPath><linearGradient id="b" x1="-0.853" y1="5.235" x2="0.072" y2="3.937" gradientUnits="objectBoundingBox"><stop offset="0" stop-color="#0096a3"/><stop offset="1" stop-color="#005979"/></linearGradient></defs><g class="b" transform="translate(0 0)"><g transform="translate(37.53 -702.737)"><g class="c" transform="translate(0 32.332)"><path class="d" d="M9.021,809.716h0c12.028,9.71,31.523,9.71,43.551,0L933.612,98.188c12.031-9.711,12.031-25.46,0-35.171h0c-12.023-9.712-31.52-9.712-43.544,0L9.021,774.544C-3.01,784.255-3.01,800,9.021,809.716Z" transform="translate(0.002 -55.733)"/><path class="d" d="M21.134,994.285h0c12.028,9.71,31.523,9.71,43.551,0L1024.12,219.446c12.023-9.713,12.023-25.458,0-35.171h0c-12.024-9.716-31.526-9.716-43.551,0L21.134,959.114c-12.023,9.713-12.023,25.458,0,35.171Z" transform="translate(-3.412 -106.649)"/><path class="d" d="M304.991,1021.221h0c12.023,9.712,31.52,9.712,43.543,0L1191.189,340.7c12.023-9.713,12.023-25.458,0-35.171h0c-12.027-9.71-31.523-9.71-43.551,0L304.991,986.05C292.961,995.76,292.961,1011.51,304.991,1021.221Z" transform="translate(-83.372 -157.566)"/><path class="d" d="M317.954,1205.3h0c12.028,9.71,31.523,9.71,43.551,0L1281.943,461.96c12.023-9.713,12.023-25.458,0-35.171h0c-12.028-9.71-31.523-9.71-43.551,0L317.954,1170.128C305.931,1179.841,305.931,1195.586,317.954,1205.3Z" transform="translate(-87.026 -208.483)"/><path class="d" d="M838.264,1095.094h0c12.027,9.71,31.523,9.71,43.551,0l633.8-511.824c12.023-9.713,12.023-25.458,0-35.171h0c-12.027-9.71-31.523-9.71-43.551,0l-633.8,511.824C826.241,1069.636,826.241,1085.38,838.264,1095.094Z" transform="translate(-233.596 -259.422)"/><path class="d" d="M618.593,1414.1h0c12.024,9.716,31.526,9.716,43.551,0L1540.835,704.48c12.023-9.713,12.023-25.458,0-35.171h0c-12.027-9.71-31.523-9.71-43.551,0L618.593,1378.933C606.567,1388.643,606.567,1404.389,618.593,1414.1Z" transform="translate(-171.715 -310.319)"/><path class="d" d="M988.019,1391.4h0c12.027,9.71,31.523,9.71,43.551,0L1732,825.74c12.031-9.711,12.031-25.461,0-35.171h0c-12.028-9.71-31.523-9.71-43.551,0l-700.43,565.685C976.016,1365.965,976.015,1381.692,988.019,1391.4Z" transform="translate(-275.786 -361.236)"/><path class="d" d="M1335.554,1381.395h0c12.027,9.71,31.523,9.709,43.551,0L1917,946.991c12.026-9.71,12.026-25.455,0-35.166h0c-12.024-9.716-31.526-9.716-43.55,0l-537.893,434.4c-12.023,9.714-12.023,25.458,0,35.171Z" transform="translate(-373.682 -412.151)"/><path class="d" d="M1259.526,1617.1h0c12.024,9.716,31.527,9.716,43.551,0l679.607-548.834c12.023-9.713,12.023-25.458,0-35.171h0c-12.028-9.71-31.523-9.71-43.551,0L1259.526,1581.95c-12.017,9.709-12.017,25.445,0,35.154Z" transform="translate(-352.266 -463.076)"/><path class="d" d="M1675.969,1567.123h0c12.024,9.716,31.526,9.716,43.55,0L2187.1,1189.51c12.023-9.713,12.023-25.458,0-35.171h0c-12.027-9.709-31.523-9.709-43.551,0L1675.969,1531.98C1663.962,1541.688,1663.962,1557.415,1675.969,1567.123Z" transform="translate(-469.58 -513.985)"/><path class="d" d="M1699.324,1745.168h0c12.028,9.71,31.523,9.71,43.551,0l537.9-434.4c12.023-9.713,12.023-25.458,0-35.171h0c-12.027-9.709-31.523-9.709-43.551,0l-537.9,434.4c-12.023,9.713-12.023,25.458,0,35.171Z" transform="translate(-476.156 -564.903)"/></g><path class="d" d="M318.374,536.512h0c12.024,9.716,31.526,9.716,43.551,0L973.695,42.456c12.023-9.713,12.023-25.458,0-35.171h0c-12.024-9.716-31.526-9.716-43.551,0L318.374,501.34c-12.023,9.713-12.023,25.458,0,35.171Z" transform="translate(-87.144 0.002)"/><path class="d" d="M317.954,728.357h0c12.028,9.71,31.523,9.71,43.551,0L1060.677,163.71c12.023-9.713,12.023-25.458,0-35.171h0c-12.028-9.71-31.523-9.71-43.551,0L317.954,693.186C305.931,702.9,305.931,718.644,317.954,728.357Z" transform="translate(-87.026 -50.915)"/><path class="d" d="M652.258,726.015h0c12.028,9.71,31.523,9.71,43.551,0l546.139-441.046c12.031-9.711,12.031-25.461,0-35.171h0c-12.023-9.712-31.52-9.712-43.543,0L652.258,690.861C640.249,700.572,640.249,716.3,652.258,726.015Z" transform="translate(-181.202 -101.831)"/><path class="d" d="M620.254,936.21h0c12.028,9.71,31.523,9.71,43.551,0L1320.03,406.27c12.023-9.713,12.023-25.458,0-35.171h0c-12.027-9.71-31.523-9.71-43.551,0L620.254,901.039C608.231,910.752,608.231,926.5,620.254,936.21Z" transform="translate(-172.183 -152.767)"/><path class="d" d="M980.744,918.677h0c12.027,9.71,31.523,9.71,43.551,0L1508.681,527.49c12.023-9.713,12.023-25.458,0-35.171h0c-12.028-9.71-31.523-9.71-43.551,0L980.744,883.506C968.721,893.219,968.721,908.964,980.744,918.677Z" transform="translate(-273.732 -203.668)"/><path class="d" d="M715.9,1263.912h0c12.028,9.71,31.523,9.71,43.551,0L1521.177,648.75c12.023-9.713,12.023-25.458,0-35.171h0c-12.027-9.71-31.523-9.71-43.551,0L715.9,1228.74C703.881,1238.454,703.881,1254.2,715.9,1263.912Z" transform="translate(-199.128 -254.586)"/><path class="d" d="M1205.585,1171.456h0c12.028,9.71,31.523,9.71,43.551,0L1746.2,770.031c12.026-9.71,12.026-25.455,0-35.165h0c-12.024-9.716-31.526-9.716-43.551,0l-497.065,401.426C1193.567,1146,1193.567,1161.744,1205.585,1171.456Z" transform="translate(-337.071 -305.513)"/><path class="d" d="M1553.12,1161.443h0c12.027,9.71,31.523,9.71,43.551,0L1931.19,891.27c12.023-9.713,12.023-25.458,0-35.171h0c-12.027-9.71-31.523-9.71-43.55,0l-334.549,270.179C1541.081,1136,1541.093,1151.737,1553.12,1161.443Z" transform="translate(-434.967 -356.421)"/><path class="d" d="M1513.181,1376.211h0c12.027,9.71,31.523,9.709,43.551,0l450.375-363.69c12.031-9.711,12.031-25.461,0-35.171h0c-12.028-9.71-31.523-9.71-43.551,0l-450.339,363.691c-12.033,9.705-12.049,25.45-.036,35.171Z" transform="translate(-423.724 -407.335)"/><path class="d" d="M1893.533,1347.168h0c12.024,9.716,31.526,9.716,43.551,0l264.227-213.388c12.023-9.713,12.023-25.458,0-35.171h0c-12.028-9.709-31.523-9.709-43.551,0L1893.533,1312C1881.507,1321.713,1881.507,1337.458,1893.533,1347.168Z" transform="translate(-530.863 -458.253)"/><path class="d" d="M1916.893,1525.213h0c12.024,9.716,31.526,9.716,43.551,0l334.549-270.173c12.023-9.714,12.023-25.458,0-35.171h0c-12.027-9.709-31.523-9.709-43.55,0l-334.549,270.179C1904.867,1499.758,1904.867,1515.5,1916.893,1525.213Z" transform="translate(-537.444 -509.17)"/></g></g></svg>